<svg width="24" height="24" viewBox="0 0 24 24" fill="none" xmlns="http://www.w3.org/2000/svg">
<path d="M7.40473 17.8953H7.21591L6.27332 16.9527V16.7639L7.71429 15.323H8.71259L8.84568 15.4561V16.4544L7.40473 17.8953Z" fill="white"/>
<path d="M6.27332 7.23445V7.04562L7.21591 6.10304H7.40473L8.84568 7.54399V8.54229L8.71259 8.6754H7.71429L6.27332 7.23445Z" fill="white"/>
<path d="M14.5708 14.8571H13.1995L13.085 14.7426V11.5325C13.085 10.9614 12.8605 10.5188 12.1718 10.5033C11.8174 10.494 11.4118 10.5033 10.9785 10.5203L10.9135 10.5869V14.741L10.7989 14.8555H9.42764L9.3131 14.741V9.25736L9.42764 9.14282H12.5138C13.7133 9.14282 14.6853 10.1148 14.6853 11.3143V14.7426L14.5708 14.8571Z" fill="white"/>
<path d="M7.59975 12.8017H2.11453L2 12.6871V11.3128L2.11453 11.1982H7.59975L7.71429 11.3128V12.6871L7.59975 12.8017Z" fill="white"/>
<path d="M21.8855 12.8017H16.4002L16.2857 12.6871V11.3128L16.4002 11.1982H21.8855L22 11.3128V12.6871L21.8855 12.8017Z" fill="white"/>
<path d="M11.2091 7.42947V3.31555L11.3236 3.20102H12.698L12.8126 3.31555V7.42947L12.698 7.54399H11.3236L11.2091 7.42947Z" fill="white"/>
<path d="M11.2091 20.6843V16.5705L11.3236 16.4559H12.698L12.8126 16.5705V20.6843L12.698 20.799H11.3236L11.2091 20.6843Z" fill="white"/>
</svg>
